<?xml version="1.0" standalone="no"?>
<!DOCTYPE svg PUBLIC "-//W3C//DTD SVG 20010904//EN"
 "http://www.w3.org/TR/2001/REC-SVG-20010904/DTD/svg10.dtd">
<svg version="1.0" xmlns="http://www.w3.org/2000/svg"
 width="700.000000pt" height="700.000000pt" viewBox="0 0 700.000000 700.000000"
 preserveAspectRatio="xMidYMid meet">
<metadata>
Created by potrace 1.14, written by Peter Selinger 2001-2017
</metadata>
<g transform="translate(0.000000,700.000000) scale(0.100000,-0.100000)"
fill="#000000" stroke="none">
<path d="M770 2790 l0 -1900 2010 0 2010 0 0 1331 c0 732 -3 1329 -7 1327 -5
-2 -105 -51 -223 -110 -382 -189 -689 -311 -956 -379 -119 -31 -141 -34 -284
-34 l-155 0 -75 37 c-83 41 -112 64 -164 132 -103 135 -100 365 9 706 51 160
186 509 256 662 l58 128 -158 0 -158 0 -13 -27 c-137 -294 -266 -598 -467
-1103 -135 -338 -254 -625 -265 -637 -34 -36 -112 -57 -213 -57 -99 0 -137 13
-174 60 -45 57 -18 169 134 569 85 223 332 837 375 932 17 36 29 67 28 69 -2
1 -46 -18 -98 -42 -101 -47 -171 -56 -250 -34 -94 26 -184 117 -217 218 l-17
52 -493 0 -493 0 0 -1900z"/>
<path d="M3709 4548 c-262 -509 -389 -816 -389 -940 0 -117 113 -184 259 -154
145 30 463 168 926 401 l280 141 3 347 2 347 -504 0 -503 0 -74 -142z"/>
</g>
</svg>
