<svg xmlns="http://www.w3.org/2000/svg" xmlns:xlink="http://www.w3.org/1999/xlink" width="75" height="75" viewBox="0 0 192.75599670410156 192.75599670410156" preserveAspectRatio="xMinYMin meet"><rect id="svgEditorBackground" x="0" y="0" width="192.75599670410156" height="192.75599670410156" style="fill:none;stroke:none;"/><g fill-rule="evenodd" clip-rule="evenodd"><path fill="#fff" d="M0,0h192.756v192.756H0V0Z"/><path d="M131.959,168.232V63.589H21.092v104.643h110.867Z"/><path d="M86.076 52.566c-4.862 10.314-9.774 20.252-13.978 30.812-2.501 6.283-10.509 26.325-11.172 28.125-.607 1.646-3.63 2.252-4.366 2.35-9.181 1.23-7.6-4.602-7.496-5.107 1.274-6.178 12.126-32.118 13.755-36.219.494-1.245 1.191-2.548 1.673-3.619.113-.25-.218.096-.492.195-2.548.925-4.077 2.408-6.851 2.371-4.885-.065-8.703-4.129-8.958-9.305-.442-9 2.615-15.544 7.258-24.85 1.106-2.218 3.997-7.582 6.225-8.853 3.318-1.892 7.118-2.511 10.971-1.95.706.102 1.465.389 1.792.952.505.871-.136 1.944-.54 2.677-3.772 6.842-7.527 13.377-10.626 20.531-.749 1.728-1.219 3.491-.871 5.38.115.627.756 1.291 1.378 1.262 1.346-.062 2.387-.659 3.388-1.57 6.06-5.516 11.104-15.336 18.096-28.136.486-.89 1.621-1.662 2.354-1.939 3.488-1.321 7.599-1.853 10.872.334.705.822-1.184 3.938-2.076 5.776-3.415 7.032-7 13.706-10.336 20.783zM91.483 92.72c-.271 1.819.544 3.516 2.116 4.377 2.32 1.271 4.477.828 7.358-.105 16.439-5.334 74.053-37.743 65.518-33.321 2.055-1.064 7.652-4.328 10.01-4.694 2.014-.313 3.891 1.037 4.533 2.788.766 2.087.148 4.245-1.965 5.581-30.582 19.336-73.906 44.875-90.659 42.24-4.283-.674-8.99-3.676-9.925-9.852-1.193-7.884 5.375-22.652 6.735-26.56 1.286-3.696 14.692-32.722 22.75-44.072.445-.627 1.984-1.497 2.654-1.818 1.561-.749 7.844-1.981 10.486-.279 3.816 3.814-27.341 50.485-29.611 65.715z" fill="#bbbcbf"/><path d="M50.822 158.793c-2.56.662-5.22-1.072-5.942-3.869-.723-2.797.767-5.602 3.326-6.262 2.56-.66 5.22 1.07 5.942 3.869.722 2.797-.767 5.602-3.326 6.262z"/></g></svg>